<svg version="1" xmlns="http://www.w3.org/2000/svg" width="400" height="400" viewBox="0 0 300.000000 300.000000"><path d="M129 2.1c-1.4.5-6 2-10.3 3.3-6.3 2-8.5 2.2-11.3 1.4-2.9-.8-3.9-.6-5.5.8-1 .9-2.1 2.4-2.4 3.4-.3.9-3.6 3-7.3 4.6C84.8 18.7 76 26.1 76 29.3c0 1.6.2 1.7 1.6.7 1.3-1.1 1.6-1 2 .7.5 1.8 1.2 2 7.5 1.6 7.6-.5 9.1.8 3.4 2.7-2.5.8-4.4.9-6.5.1-1.9-.6-3-.6-3 0s-.7.6-1.9-.1c-1.1-.5-2.2-1-2.4-1-.3 0 1.3 5.5 3.5 12.1l3.9 12.1-4.6 4.4c-5 4.9-8.5 10-8.5 12.6 0 1.4-.8 1.8-3.4 1.8-12.5 0-16 21.5-6.6 40 2.2 4.4 2.1 6.7-.2 3.1-2.5-4.1-4.8-2-4.8 4.3 0 5.4 2.8 12.9 7 19 4.3 6.1 5 7.6 2.5 5.6-2.5-2.1-3.7.1-2.4 4.1 2.9 8.4 14.7 20.8 29.4 30.6 15.7 10.5 41.2 22 51.5 23.2l6.5.7-3.9 1.7c-2.2 1-4.5 2.6-5.2 3.6-.7 1-2.6 2.4-4.2 3-4.5 1.9-6.4 8.1-4.3 13.6.6 1.6 0 2.3-3.8 4.4-7.6 4-22.3 16-26.5 21.5-2.1 2.8-5.2 7.9-6.9 11.3-1.8 3.7-3.8 6.3-4.7 6.3-2.3 0-15.6-14.6-20.1-22.1-8.6-14.3-20-44.5-23.8-62.8-3.3-15.5-4.4-30.6-3.8-49.6.8-22.6 3.5-38.5 9.4-54.5 2.5-6.9 6.8-18.6 9.5-26 8.5-23.5 7.7-33.5-3.3-41.7-10.4-7.7-17.2-8.7-26.4-4-9.4 4.8-14.6 11.4-12.3 15.9 1.3 2.7 2.6 2.2 4.8-2.2 2.7-5.4 9-6.9 10.6-2.5.6 1.4-3.3 7.1-8.2 12.3-1.2 1.2-2.4 3.7-2.7 5.5-.2 1.8-1.6 5.9-3 9.2-8 19-10.7 50.8-6.9 80.1 1.2 8.8 2.6 20.2 3.2 25.4 2.6 22.9 8.7 50.8 15 67.7 7.7 21.2 26 50.1 40.7 64.4 4.8 4.7 9.9 9.3 11.3 10.2 2.3 1.5 6.9 1.7 37.7 1.6 32.3 0 35.2-.1 35.6-1.7.4-1.6.5-1.6.6 0 .1 1.7 2.4 1.8 33.5 1.8 33.5 0 33.5 0 35-2.2 5-7-1.4-21.8-10-23.4-1.8-.3-3.7-1.1-4.2-1.8-.5-.6-1.4-7.2-2-14.7-1-12.7-1-13.9.8-17.4 4.8-9.4 3.4-19-4.1-28.5-2.1-2.7-3.9-5.1-3.9-5.3 0-.3 3.5-.7 7.8-.9 12.7-.9 31.8-7.8 44.8-16.4 14.7-9.8 28.5-29.6 33.3-47.9.6-2.2 1.1-4.8 1.1-5.8 0-2.4-2.7-2.1-4 .4-1.9 3.4-2.4 1.3-.7-2.9.9-2.2 1.8-6.8 2.2-10.3.6-6.1.5-6.3-1.1-4.2-2.3 3.2-3.7 2.9-2-.5 7.7-14.9 7.3-38.4-.7-43.2-4.1-2.6-6.8-2.5-10.1.1-3.5 2.8-3.2 6.3.7 6.7 2.2.3 2.7.8 2.7 3 0 2.8-2.4 7.2-3.9 7.2-.5 0-1.2-1.2-1.6-2.7-.3-1.5-2.2-5.9-4.1-9.8-3.4-7-3.5-7.2-2.5-15.3 1.8-16.1-1.9-40-7.8-50.7-2.3-4.4-3-5-5.6-4.8-1.7.1-4.1.8-5.4 1.5-3.2 1.7-18.6 20.9-21.7 27.1-1.8 3.5-2.9 4.7-4.2 4.3-3.9-1.1-14.8-2.7-24.8-3.6-5.8-.5-11.1-1.4-11.8-1.9-2.2-1.8-9.2-2.9-13.8-2.2-2.7.4-5.1.5-5.4.2-.3-.3-1-.6-1.6-.6-.6 0-2.1-3.8-3.4-8.5-3.7-13.4-5.1-16.4-9.6-20-3.7-3-4.8-3.4-11.7-3.6-4.2-.2-8.7.1-10.1.7zm119 16.2c0 .2-1.7 1.9-3.7 3.8l-3.8 3.4 3.4-3.8c3.3-3.4 4.1-4.2 4.1-3.4zm6.6 34.6l.7 11.4-2.9-.7c-3.3-.8-12.1-9.6-10.6-10.5 1.6-.9 2.5-5.8 1.3-6.5-.6-.4-2.4 0-4.1.9l-3 1.5 2-5c2.8-7 5.7-12.7 9.3-18l3.1-4.4 1.7 9.9c1 5.5 2.1 15.1 2.5 21.4zm6.1 1.3c-.2 2.9-.3.8-.3-4.7s.1-7.9.3-5.3c.2 2.6.2 7.1 0 10zM187.9 50c-2.7 6.3-8.8 11.9-20.2 18.5-4.7 2.7-8.5 5.5-8.4 6.2.1.6 0 1.1-.3 1.1-.9-.2-7.6 6.7-7.2 7.5.2.4 0 .6-.5.5-.4-.1-1.8.3-2.9 1-1.2.6-2.5.8-2.9.4-.5-.4-.5.1-.2 1 .4 1.3.2 1.5-1 1.1-1.2-.5-1.4-.3-.8.8.4.8.4 1.1 0 .6-.5-.4-2 .3-3.4 1.5-1.9 1.8-2.2 1.8-1.1.4 1.3-1.7 1.1-1.7-1.6.3-1.6 1.2-3.8 3.5-4.7 5.1-1 1.6-2.7 3.2-4 3.6-1.2.3-3 1.3-3.9 2.2-1 .8-1.8 1.1-1.8.7 0-.4-.8-.1-1.7.7-1 .8-2.6 1.8-3.6 2.1-1 .4-1.5 1.1-1.2 1.7.3.5 0 .7-.8.4-.8-.3-2 .2-2.7 1-.7.9-1.7 1.3-2.2 1-1.3-.8-6.9 1.6-6.2 2.7.3.6-1.1.7-3.3.4-2.1-.3-6.5-.7-9.8-.9-3.3-.2-7.2-.7-8.7-1.1-2-.5-2.8-.3-2.8.6 0 1-.3 1.1-.8.3-.4-.7-1.6-1.4-2.7-1.6-1.1-.2-1.9-1-1.7-1.7.1-.7-.2-1-.7-.7-1.2.8-4.1-2.1-3.7-3.7.2-.7.7-2.1 1.2-3.2 1.1-3 1.1-3.9 0-5.4-.9-1.1-.6-1.1 1.4.1 1.4.9 3.6 1.8 5 2.1 2.2.5 2.8.2 3.7-2.4 1.1-2.8 1.5-3 4.5-2.3 7.8 1.7 17.1.4 32.6-4.7 5.1-1.6 9.7-2.7 10.4-2.3.6.4.8.3.5-.3-.4-.6 2.9-2.2 7.6-3.8 14.1-4.7 33.3-14.8 42.6-22.4 4.5-3.7 9-11.4 9.2-16.1.2-2.3.2-2.3.6-.3.2 1.2-.6 4.4-1.8 7.3zm-86.4 6c-.3.5-2.4 1-4.6 1-2.4 0-3.8-.4-3.4-1 .3-.6 2.4-1 4.6-1 2.4 0 3.8.4 3.4 1zM86 67c2.6 2.6 2.5 2.8-.4 2.5-3.4-.4-4.6-1.3-3.9-3 .7-2 1.9-1.9 4.3.5zm173.7 1.2c-.3.8-.6.5-.6-.6-.1-1.1.2-1.7.5-1.3.3.3.4 1.2.1 1.9zm-71 10.4c-.3.3-1.2.4-1.9.1-.8-.3-.5-.6.6-.6 1.1-.1 1.7.2 1.3.5zm94.9 2.2c-.4.3-1.4-.2-2.4-1.2-1.6-1.8-1.6-1.8.6-.6 1.3.6 2.1 1.4 1.8 1.8zM179 80.1c-15.5 3-28.9 15.8-33.5 32-1.3 4.4-1.5 4.7-1.1 1.5.3-2.1 1.8-6.6 3.5-10.1 1.6-3.5 2.6-6.6 2.3-7-.4-.4-.2-.5.4-.3.5.2 2.4-1.3 4.2-3.3 6-6.9 19.2-14 25.7-13.8 2.4.1 2.1.3-1.5 1zm25.5 2.8c16.6 7.7 28.3 29.2 24.7 45.6l-1 5 .5-6c1.1-12.7-4-26.9-12.9-35.8-5.1-5.1-14.5-10.1-21.9-11.7l-4.4-.9 4.2.3c2.4.2 7.2 1.8 10.8 3.5zm-122.4-.4c3.6 1.9 2.9 3.5-1.5 3.5-3.3 0-5.6-1.5-5.6-3.7 0-1.8 3.4-1.6 7.1.2zm202.2 1c.4.8.2 1.7-.3 2-.6.4-1-.3-1-1.4 0-2.5.6-2.7 1.3-.6zm-221 2c-.3.9-.8 1.4-1 1.1-.3-.3-.2-.9.2-1.5.9-1.6 1.5-1.3.8.4zm30.4-.9c-.3.3-1.2.4-1.9.1-.8-.3-.5-.6.6-.6 1.1-.1 1.7.2 1.3.5zm-25 3.6c-.3.8-.6.5-.6-.6-.1-1.1.2-1.7.5-1.3.3.3.4 1.2.1 1.9zm9.4-.7c2.5 1.3 2.8 1.9 1.9 3.5-1.4 2.5-3.6 2.6-5 .1-1.1-2.1-1.4-5.1-.5-5.1.4 0 1.9.7 3.6 1.5zm121.7 1.7c6.6 2.5 14.9 10.4 18.1 17.3 3.2 6.9 4.6 15.9 3.3 21.5l-1.1 4.5.5-5.1c.7-6.4-.8-14.7-3.7-20.9-2.9-6.1-9.3-13-11.1-11.9-.7.4-1 .4-.6-.1 2.3-2.4-9.6-6.6-18.8-6.6-12.1 0-21.5 4.9-28 14.5-1.9 2.8-3.4 4.7-3.4 4.3 0-.5 1.3-2.8 3-5.2 9.3-13.5 25.5-18.3 41.8-12.3zm11.6.6c2.6 2 6.4 6.2 8.3 9.3 3.8 6.2 7.3 18.2 7.2 24.4-.1 3.4-.3 3.1-1-2-.5-3.3-1.8-9.2-3-13-1.9-6.4-2.8-7.7-10-14.8-8.7-8.4-9.2-9.9-1.5-3.9zm74.3-.6c-.3.8-.6.5-.6-.6-.1-1.1.2-1.7.5-1.3.3.3.4 1.2.1 1.9zm-224 1c-.3.8-.6.5-.6-.6-.1-1.1.2-1.7.5-1.3.3.3.4 1.2.1 1.9zm141.5 3.9c7 4.5 11.9 12.5 9.2 15.1-1.1 1.1-6.3-1.6-7.3-3.8-.6-1.4-2.9-3-6.1-4.1-4.9-1.8-5-1.8-5-6 0-3.7.3-4.3 2.2-4.3 1.2 0 4.3 1.4 7 3.1zm-52.2-.6c0 .8-.2 1.5-.4 1.5s-.6-.7-1-1.5c-.3-.8-.1-1.5.4-1.5.6 0 1 .7 1 1.5zm-90.3 3.7c-.3.7-.5.2-.5-1.2s.2-1.9.5-1.3c.2.7.2 1.9 0 2.5zm225 4c-.3.8-.6.5-.6-.6-.1-1.1.2-1.7.5-1.3.3.3.4 1.2.1 1.9zM154 111.7c-.6 1.6-1.5 5.9-2 9.4l-.9 6.4.4-6.5c.4-6 2.2-13.6 3.1-12.7.2.2-.1 1.7-.6 3.4zm63.2 1.9c1.6 3.4 0 5.9-3.8 5.9-3.4 0-5.9-3.8-4.3-6.7 1.5-2.9 6.7-2.4 8.1.8zm-22.5 5c2.2 2.3 2.5 3.2 2.1 8-.7 8.5-4.8 11.6-9.5 7.2-3.1-2.9-3.3-11.3-.2-15.2 2.6-3.3 4.3-3.3 7.6 0zm-51 7.1c-.2 1.6-.4.3-.4-2.7s.2-4.3.4-2.8c.2 1.6.2 4 0 5.5zm113.4-5.1c1.6 1.9 2 3.7 2.2 8.6.2 4.3-2.5 7.8-5.9 7.8-3 0-4.4-2.7-4.4-8.5 0-7.6 4.6-12.1 8.1-7.9zm-100.9 3.9c.3 1.3.1 2.2-.3 1.9-.9-.5-1.3-4.4-.5-4.4.2 0 .6 1.1.8 2.5zm-83.1 1.2c1.3 1.6 1.2 1.7-.3.4-1-.7-1.8-1.5-1.8-1.7 0-.8.8-.3 2.1 1.3zm21.3 3.8c.3.8.1 1.5-.3 1.5-.5 0-1.1-.7-1.5-1.5-.3-.8-.1-1.5.3-1.5.5 0 1.1.7 1.5 1.5zm58.3 1.7c-.3.7-.5.2-.5-1.2s.2-1.9.5-1.3c.2.7.2 1.9 0 2.5zm4-1c-.3.8-.6.5-.6-.6-.1-1.1.2-1.7.5-1.3.3.3.4 1.2.1 1.9zm-7 14c3.7 6.8 13.8 16 20.7 18.8 6.1 2.6 7 4.4 3.6 7.5-3.7 3.4-5.5 16-2.6 18.4 2.1 1.8.5 6.5-2.3 6.9-1.2.2-3.1 1.8-4.2 3.5-1 1.8-1.9 2.7-1.9 2.1 0-1.8 4-6.4 5.6-6.4 2.2 0 3.5-4.2 1.8-6.1-2.8-3.1-1.1-15.2 2.7-19 1-1 1.9-2.3 1.9-2.8 0-.4-2.9-2.2-6.4-4-11.7-5.8-22.8-19.8-24.1-30.6-.5-3.4-.3-3.2 1 1.4.8 3 2.7 7.6 4.2 10.3zM79.5 133c1 1.1 1.6 2 1.3 2-.3 0-1.3-.9-2.3-2-1-1.1-1.6-2-1.3-2 .3 0 1.3.9 2.3 2zm82.9 15.4c2 2 6 4.8 8.9 6.3 4.7 2.5 6.2 2.8 15.2 2.8s10.5-.3 15.2-2.7c6.9-3.7 12-9 15.4-16.3 1.6-3.3 2.9-5.4 2.9-4.7 0 2.1-4 9.4-7.5 13.8-1.8 2.2-6.2 5.6-9.7 7.5-6 3.2-6.8 3.4-16.3 3.4s-10.3-.2-16.3-3.4c-3.5-1.9-7.9-5.2-9.7-7.4-3.4-3.9-7.5-11.6-7.5-13.9 0-.7 1.3 1.4 2.9 4.8 1.6 3.4 4.5 7.8 6.5 9.8zM70.7 136c1.4 1.1 2.2 2 1.7 2-1.2-.1-6.1-3.9-5.1-4 .5 0 2 .9 3.4 2zm157.6 0c.3 1.1.1 1.8-.4 1.4-.5-.3-.9 0-.9.7s-.2 1-.5.8c-.4-.5.5-4.9 1-4.9.1 0 .5.9.8 2zm-65.8 1.9c.3.9 2.1 3.3 4 5.2 3.5 3.4 4.6 6.9 2.2 6.9-.7 0-3.1-1.8-5.4-3.9-2.8-2.8-4.2-5-4.5-7.4-.3-2.8-.1-3.3 1.4-2.9.9.2 2 1.2 2.3 2.1zm-3 11c2.7 3 4 4.9 2.9 4.3-2.8-1.5-8-7.5-9.9-11.5-1.5-3.2-1.5-3.2.2-.7 1 1.4 4 4.9 6.8 7.9zm77.5-9.4c0 .2-1.8 1.4-4 2.5s-4 1.8-4 1.5c0-.2 1.7-1.3 3.8-2.4 4.2-2.3 4.2-2.3 4.2-1.6zm4.5 1.5c-.3.5-1.2 1-1.8 1-.7 0-.6-.4.3-1 1.9-1.2 2.3-1.2 1.5 0zm-4.5 1.4c0 .2-.7.7-1.6 1-.8.3-1.2.2-.9-.4.6-1 2.5-1.4 2.5-.6zm7.8 4.2c-.3 2.7-.4 2.6-.9-.8-.3-2.2-.1-3.4.4-2.9s.7 2.1.5 3.7zm-174.7-1.9c1.3 1.6 1.2 1.7-.3.4-1-.7-1.8-1.5-1.8-1.7 0-.8.8-.3 2.1 1.3zm153 1.5c-6.4 10.1-19.6 19.2-29.8 20.4-4.5.6-5.2 1-5.6 3.2-.3 1.5.1 3.5.9 4.6 2.8 4 .6 13.3-3.9 16.8-2 1.5-2.2 2.5-2 8.9.3 6.4 0 7.8-2.7 12.4-4.2 7.4-5 7.9-11.5 7-5.2-.6-5.5-.5-5.5 1.5 0 3.8-4 6.5-11.7 7.9-5.3.9-7.7 1-9 .2-1.5-1-1.4-1 .7-.6 1.4.3 5.6-.1 9.5-.9 6.9-1.4 9.5-3.3 9.5-6.6 0-2.8 1.9-3.9 5-2.8 5.3 1.8 8.1.7 11.3-4.5 3-5 4.7-13 2.9-14-1.5-1 .9-8.6 2.9-9.2 2-.7 4.9-7.4 4.9-11.4 0-1.6-.7-3.6-1.5-4.4-.9-1-1.2-2.6-.8-5 .5-3.3.7-3.5 5.9-4 3-.3 7.9-1.7 10.9-3.1 5.9-2.7 15.3-10.9 18.6-16.3 1.1-1.8 2.3-3.3 2.6-3.3.3 0-.4 1.5-1.6 3.2zm9.1.5c-.3 1.6-.7 2.2-1 1.5-.4-1.3.4-4.2 1.1-4.2.2 0 .2 1.2-.1 2.7zm16.5 7c-.2 1.6-.4.3-.4-2.7s.2-4.3.4-2.8c.2 1.6.2 4 0 5.5zm-71.9-1.3c.3 1.3-.1 1.7-1.4 1.4-1.1-.2-2-1.1-2.2-2.2-.3-1.3.1-1.7 1.4-1.4 1.1.2 2 1.1 2.2 2.2zm64.4 2.1l2.3-1.9-2.3 2.4-2.2 2.5-3.8-4-3.7-4 3.7 3.4c3.7 3.4 3.8 3.4 6 1.6zM79.3 165.6c1.4 2.4.3 1.6-3.8-2.8-4-4.1-4-4.1-.5-1.4 1.9 1.6 3.9 3.5 4.3 4.2zm158.4 4.7c.7.5 1 1.3.7 1.8-.3.5 0 .9.5.9.6 0 1.1 1.1 1.1 2.5 0 3.4-2 3.2-2.1-.3-.1-1.5-.1-3 0-3.4 0-.4-1-1-2.4-1.4-1.4-.3-2.5-1-2.5-1.5 0-.9 2.8-.1 4.7 1.4zm-54.7.6c0 2.4-1.8 3.7-3.2 2.3-.8-.8-.7-1.6.2-2.7 1.7-2.1 3-1.9 3 .4zm46.6 1.6c-1.7 1.8-2.8 4.4-3.2 7.6-.4 2.7-1 4.9-1.5 4.9-1.2 0-1.1-2 .2-6.1 1.3-3.6 5.8-10.3 6.6-9.6.2.3-.7 1.7-2.1 3.2zm38.4.8c0 .2-1 1.2-2.2 2.3l-2.3 1.9 1.9-2.3c1.8-2.1 2.6-2.7 2.6-1.9zm-80.6 4.3c.7 1.9-1.1 5.7-2.5 4.9-1.5-1-1.1-6.5.5-6.5.8 0 1.7.7 2 1.6zm-5.9.4c.9 0 1.1.9.6 3.2-.6 2.7-1.2 3.3-3.4 3.4-2.5.1-2.6.1-.2-.3 1.8-.3 2.5-1.1 2.5-2.8 0-3.4-2.8-4-3.3-.7-.3 2.4-.4 2.3-.6-.7-.1-2.6.2-3.2 1.5-2.7.9.3 2.1.6 2.9.6zm81.5.4c0 .2-.8 1-1.7 1.7-1.6 1.3-1.7 1.2-.4-.4 1.3-1.6 2.1-2.1 2.1-1.3zm-24 2.8c0 .6-1.8 2.8-4.1 5-4 3.8-4 3.8-6.9 2.1-1.6-.9-2.7-1.9-2.5-2.2.3-.2 1.1.1 1.7.7.7.7 1.9 1.2 2.8 1.2 1.9 0 7-5 7-6.8 0-.7.5-1.2 1-1.2.6 0 1 .5 1 1.2zm-60 7.2c0 2.8-2.3 7.6-3.6 7.6-1.7 0-1.7-.4-.3-5.3.9-3.5 3.9-5.3 3.9-2.3zm45 9.6c-.8.6-2.3 1-3.2 1-.9 0-2.5.3-3.5.6-1.7.5-1.7.5 0-.6.9-.6 2.7-1.3 3.9-1.5 1.1-.3 2.3-.7 2.6-1 .3-.3.8-.3 1.1.1.3.3-.1.9-.9 1.4zm-67.3 2.6c-.3.3-1.2.4-1.9.1-.8-.3-.5-.6.6-.6 1.1-.1 1.7.2 1.3.5zm23.1 2.6c-.3 3.4-2 4.2-2.6 1.3-.5-2.2.5-4.5 1.8-4.5.7 0 1 1.4.8 3.2zm28.9-1.6c-.3.3-1.2.4-1.9.1-.8-.3-.5-.6.6-.6 1.1-.1 1.7.2 1.3.5zm-33.7 3.5c0 .5-.7 2.3-1.5 3.9-1.6 3.2-3.5 4-3.5 1.6 0-.8-.3-2.3-.6-3.3s.1-.8.9.6c1.4 2.4 1.5 2.4 2.6.3 1.6-3 1.4-4.2-1-4.2-1.1 0-1.7-.5-1.4-1 .7-1.2 4.5.5 4.5 2.1zm-14 4.4c0 .8-.2 1.5-.4 1.5s-.6-.7-1-1.5c-.3-.8-.1-1.5.4-1.5.6 0 1 .7 1 1.5zm39.1 3.2c1.3 1.6 1.2 1.7-.3.4-1.7-1.3-2.2-2.1-1.4-2.1.2 0 1 .8 1.7 1.7zm-34 .8c0 .5-1.2 1.1-2.6 1.3-1.8.2-2.5-.1-2.5-1.3s.7-1.5 2.5-1.3c1.4.2 2.6.7 2.6 1.3zm-11.5 1.9c.3.8.4 2.2.2 3.1-.2 1.2-.7.7-1.5-1.4-.6-1.8-.7-3.1-.2-3.1.5 0 1.2.6 1.5 1.4zm-7.7.5c1.6 1 .6 3.1-1.4 3.1-1.7 0-2.8-1.7-2-3 .8-1.2 1.6-1.2 3.4-.1zm2.6 3.1c-.3.6.4 1 1.6 1 3 0 2.2.6-2 1.4-3.4.6-3.4.6-1.6-1.4 1.9-2.1 3-2.7 2-1zm-10.8 5.2c-.3.8-.6.5-.6-.6-.1-1.1.2-1.7.5-1.3.3.3.4 1.2.1 1.9zm70 6c-.3.8-.6.5-.6-.6-.1-1.1.2-1.7.5-1.3.3.3.4 1.2.1 1.9zm-72.3 13.2c-.3.9-1 1.6-1.5 1.6-1.4 0-1.1-2.8.4-3.3 1.6-.6 1.9-.3 1.1 1.7zm53.3 7.3c-.3 1-.5.4-.5-1.2 0-1.7.2-2.4.5-1.8.2.7.2 2.1 0 3zm9 9.5c-.3.8-.6.5-.6-.6-.1-1.1.2-1.7.5-1.3.3.3.4 1.2.1 1.9zm8 3.5c-.3 1-.5.4-.5-1.2 0-1.7.2-2.4.5-1.8.2.7.2 2.1 0 3zm-108.6 9c-1.2 2-1.4 1.4-.5-1.2.4-.9.9-1.4 1.1-1.1.3.2 0 1.3-.6 2.3zM220.5 283c3.3 3.1 5.1 9 3.7 11.6-1 1.6-1.1 1.3-1.2-2.1-.1-5.2-1.9-8.4-6.1-10.6-2.6-1.4-2.9-1.8-1.2-1.6 1.3.2 3.4 1.4 4.8 2.7z"/><path d="M151 78c0 .5.5 1 1.1 1 .5 0 .7-.5.4-1-.3-.6-.8-1-1.1-1-.2 0-.4.4-.4 1zM146.5 80c.3.5.8 1 1.1 1 .2 0 .4-.5.4-1 0-.6-.5-1-1.1-1-.5 0-.7.4-.4 1zM75 103c0 1.1 3.9 2 4.5 1 .3-.4-.6-1-2-1.2-1.4-.3-2.5-.2-2.5.2zM188.5 118.4c-1.3 1-2 3-2.3 7.2-.3 5-.1 6.2 1.6 7.7 4.2 3.8 8.2-.1 8.2-8 0-3.1-.6-4.8-2.2-6.3-2.6-2.4-2.9-2.4-5.3-.6zm6.2 4.2c.8 2.1-1.3 4.2-2.8 2.7-1.3-1.3-.5-4.3 1.1-4.3.6 0 1.3.7 1.7 1.6zM251.7 121.8c-1.7 1.9-2.2 7.7-1.1 11.9.4 1.5 1.4 2.3 2.9 2.3 2.8 0 4.1-1.5 5-5.8.6-2.8.4-3.2-1.4-3.2-2.5 0-2.8-2.5-.5-3.4 1.3-.5 1.4-.9.4-2.1-1.7-2-3.3-1.9-5.3.3z"/></svg>