<svg version="1" xmlns="http://www.w3.org/2000/svg" width="682.667" height="682.667" viewBox="0 0 512.000000 512.000000"><path d="M224.5 2.6c-2.7.8-6.3 1.9-8 2.3-9.2 2.7-19.5 6.1-22.9 7.5-3.5 1.4-4.3 1.4-8.3.1-2.4-.8-5.3-1.5-6.3-1.5-2.4 0-7.1 4.4-8.7 8.1-.9 2-3.6 3.7-11.7 7.3-5.9 2.5-11.1 4.6-11.6 4.6-.6 0-4.6 3.4-9 7.6-6.4 6.1-8 8.3-8 10.5 0 2.6.2 2.8 1.9 1.7 2.4-1.5 5.5.6 4.8 3.4-.4 1.5 0 1.7 3.1 1.3 2.1-.2 7.4-.7 11.9-.9 4.5-.2 8.6-.6 9-.9.4-.2 1.7-.1 2.8.4 1.9.7 1.9.8-.2.8-1.3.1-2.2.6-2 1.3.1.6-1.6 2.1-3.8 3.2-5.3 2.8-19.7 2.8-23.9.1-1.4-1-2.9-1.6-3.1-1.3-.2.2 2 7.4 4.9 15.9 2.9 8.4 5.9 17.7 6.5 20.6l1.3 5.2-8.5 8.3c-8.6 8.4-13.7 16.4-13.7 21.6 0 2.1-.3 2.3-2.9 1.7-4.8-1-11.1 1.3-15.1 5.5-6.2 6.6-9.6 22.1-7.3 34 2.4 12.9 4.8 21.7 6.4 23.4.5.6.9 1.6.9 2.3 0 .7 1.1 3.1 2.5 5.3 3.8 6.1 3.2 8.3-1 3.7-2-2-4-3.7-4.7-3.7-4.2 0-5.1 12-1.7 23.4 2.8 9.2 5.2 13.6 16.8 29.7 2.2 3.1.7 3.2-2.8.4-3.2-2.7-5.1-2.6-5.1.3 0 12.9 21.5 37.6 48.3 55.6 8.1 5.4 16.6 10.9 18.9 12.2 8.4 4.7 24.5 12.4 34.3 16.4 5.5 2.3 11.4 4.7 13 5.5 13.3 5.9 19 7.5 27.8 7.5 4.8 0 6.7.4 6.5 1.2-.5 1.5-2.5 2.5-6.2 3.3-1.6.3-5.2 2.9-8.1 5.9-2.9 2.9-6.7 5.6-8.6 6.2-5.1 1.4-7.1 6-6.5 14.9.2 3.8.8 8.2 1.1 9.7.6 2.3.4 2.8-1.2 2.8-1 0-2.3.4-2.9.9-.5.5-3.5 2.3-6.7 4-3.2 1.8-6.8 4.1-8 5.1-6.9 5.9-8.3 7-8.9 7-.4 0-1.8 1.1-3.2 2.5-1.4 1.4-3 2.5-3.6 2.5-.5 0-1 .3-1 .7 0 .5-1.7 1.9-3.7 3.3-4.5 3.1-8.3 6.5-8.3 7.5 0 .4-1 1.6-2.2 2.6-1.1 1.1-1.7 1.9-1.3 1.9.4 0-.2.9-1.5 2s-1.9 2-1.5 2c.5 0-.1.9-1.2 1.9-1.1 1.1-2.7 3.3-3.4 5-.8 1.7-1.7 3.1-2 3.1-.3 0-1.4 1.9-2.5 4.2-1 2.4-2.1 4.5-2.4 4.8-.3.3-1.6 2.6-2.8 5.3-1.2 2.6-2.6 4.7-3 4.7-.4 0-1.9-1.1-3.4-2.5s-3-2.5-3.4-2.5c-.9 0-9-8.1-11.6-11.7-1.3-1.8-4.7-6-7.6-9.5-7.7-9.1-9.6-11.9-14.5-21.8-1.2-2.5-2.5-4.7-2.9-4.8-.5-.2-.8-.9-.8-1.6 0-.7-.6-2.6-1.4-4.2-6.5-13.4-9-19.1-8.8-20.2.2-.6-.2-1.2-.8-1.2-.5 0-1-1-1-2.3 0-1.3-.4-2.7-.9-3.2-.5-.6-2.7-6.6-5-13.5s-4.6-13.3-5.2-14.2c-.5-1-.9-2.7-.9-3.8 0-1.1-.4-2-.9-2-.7 0-1.6-3.2-3.7-13-.3-1.4-.9-3.4-1.4-4.5-.9-2.1-2.9-12.4-3.7-19-.3-2.2-.9-4.4-1.4-4.9-.5-.6-.9-3.4-.9-6.2 0-2.9-.4-5.5-.8-5.8-.5-.3-.9-4.4-1-9.1-.1-4.8-.4-9.1-.7-9.5-1.5-2.4-.5-63.2 1.2-71 .3-1.4.7-4.3 1-6.5.2-2.2.8-4.9 1.3-6 .7-1.7 1.4-6.8 2.3-18.7.2-1.5.6-3 1-3.4.4-.4.7-2.2.7-4 0-1.8.5-3.6 1-3.9.6-.3 1-1.7 1-3.1 0-1.3.4-2.4.8-2.4.5 0 .9-.6.9-1.3.1-1.2 5.5-17.2 7.2-21.2.5-1.1 1.4-3.6 2.1-5.5 1.6-4.6 3.9-10.1 5-12.2.6-1 1-2.7 1-3.8 0-1.1.4-2 .9-2s1.2-2 1.5-4.5c.4-2.4 1.1-4.7 1.7-5 .5-.4.9-1.7.9-3.1 0-1.3.5-2.4 1-2.4.6 0 1-1.1 1-2.4 0-1.4.5-2.8 1-3.1.6-.4.8-1 .5-1.5-.3-.5-.1-1.1.5-1.5.5-.3 1-1.5 1-2.6 0-1 .5-1.9 1.1-1.9.6 0 .9-.9.6-2-.3-1.1.1-2.6.8-3.3.7-.7 1.3-3.2 1.3-5.5s.3-4.6.7-5.2c.3-.5.6-5.2.6-10.5 0-8.4-.3-10.2-2.7-15.1-2.7-5.5-10.2-14.4-12.1-14.4-.6 0-1.8-.9-2.8-2-2.2-2.4-6.3-4.6-12.5-6.6-2.5-.8-5.5-2-6.7-2.6-4.3-2.1-23.2 2.9-29.1 7.7-.7.5-3.4 2.8-6.1 5-2.7 2.2-5.7 5.6-6.6 7.5-1 1.9-2.2 4.3-2.7 5.4-1.4 2.6.9 7.6 3.5 7.6 2.3 0 4.6-2.6 4.7-5.3 0-2.1 4.8-7.7 6.7-7.7.7 0 1.3-.5 1.3-1 0-.6 1.5-1 3.4-1 5.6 0 11.5 7.9 7.1 9.6-.8.4-1.5 1.2-1.5 2s-.4 1.4-1 1.4c-.5 0-1 .4-1 1 0 1.2-2 3.6-8.8 10.9-4.3 4.6-5.1 6.1-4.7 8.2.4 1.7-.7 5.2-3.4 11.1-2.2 4.7-4.3 9.8-4.7 11.4-.4 1.6-1 3.3-1.4 3.9-.7 1-.9 1.8-3 13-.6 3.3-1.5 6.9-2 8-1 2.4-2.1 7.7-2.4 12.6-.2 2-.6 4.1-1 4.7-.3.6-.7 3.7-.8 6.9-.1 3.2-.5 6.3-1 7-1.1 1.4-1.3 57.6-.3 59.3.4.7.9 3.3 1 5.8.2 2.6.9 8.1 1.5 12.2 1.8 11.8 3.4 24.2 4.6 36.5 1.1 10.9 1.2 11.7 3 23.5.3 1.9.8 5.5 1 8 .3 2.5 1 5.5 1.6 6.7.6 1.1.8 2.7.6 3.5-.3.7-.1 2.4.5 3.8.5 1.4.9 3.8.8 5.3-.1 1.5.4 3.8 1.1 5 .6 1.2 1.1 3.7.9 5.4-.1 1.8.2 3.3.7 3.3.5 0 1.2 2.1 1.6 4.7 1.4 10.2 2.7 16.2 4.1 19 .7 1.3 1.1 3.4.9 4.8-.1 1.4.2 2.3.7 1.9.5-.3.9.6.9 2s.5 2.8 1.1 3.1c.6.4.8 1.3.5 2-.2.7.3 2.3 1.2 3.6.9 1.3 1.6 2.5 1.4 2.7-.4.4 1 5.6 2.4 8.9.8 1.7 1.4 3.7 1.4 4.5 0 .8.4 1.8.8 2.3.5.6 1.7 3.8 2.8 7.3 1 3.4 2.2 6.2 2.6 6.2.5 0 .8.6.8 1.4 0 1.6 7.4 16.2 13.2 26.1 1.9 3.3 4.4 7.5 5.4 9.2 1 1.8 2.2 3.3 2.7 3.3.4 0 .7.4.7.9 0 1.1 8.2 13.5 9.3 13.9.4.2.7.9.7 1.6 0 .7.8 2.1 1.8 3.2 1.6 1.8 4.3 5.5 6.7 9.2.6.9 1.5 2.2 2 2.9.6.7 2.6 3.3 4.5 5.9 7.2 9.6 24.4 25.8 34 32 2.5 1.6 4.8 3.3 5.1 3.7.8 1.2 5.4.5 5.3-.8 0-.5-3.6-3.7-7.9-7-4.3-3.4-8.8-7.7-10.1-9.5-1.2-1.9-5-6.3-8.5-9.6-19.8-19-35.6-39.4-47.8-61.6-2.3-4.2-4.4-8.9-4.7-10.5-.3-1.5-3.2-8.5-6.4-15.4-6.9-14.5-9.7-21.8-15-38.4-4.1-12.9-10.5-38.1-11.5-45.5-.4-2.5-1.1-6.8-1.7-9.5-.5-2.8-1.2-6.4-1.4-8-.3-1.7-.9-5.4-1.4-8.4-1.4-7.6-1.3-13.1.1-11.1.7 1.1.9.1.5-3.5-.6-5.4-1.4-10.1-2.1-12.5-.2-.8-.7-3.1-1-5-.3-1.9-1-5.8-1.5-8.5-.6-2.8-1.2-6.1-1.5-7.5-.3-1.3-1-7.2-1.6-13-.8-7-1.8-11.4-3-13.1-1.9-2.8-2.5-4.7-3.4-11.4-1.2-8.4-.4-28.6 1.5-40.5.5-3 1.2-8.7 1.5-12.5.5-6.6 2.9-24 4-29.5.3-1.4.8-3.9 1-5.5.3-1.7 1.5-6.4 2.6-10.5s2.2-8.4 2.5-9.4c1.3-6.6 6.1-18.4 9-22.2 1.9-2.4 3.4-5 3.4-5.7 0-1.8 3.7-5.7 5.4-5.7.7 0 2.7-1.3 4.4-3 8.4-8 10.5-22.9 3.4-24.7-2.3-.5-2.4-.7-.8-1.9 1.2-.8 4.3-1.2 9-1 12.1.5 14.6 1.6 22.2 9.1 5.2 5.3 6.6 8 8.9 17.3 2.6 10.9 1.8 18.5-3.4 30.2-7.4 16.8-8.1 18.4-8.6 22-.3 1.9-.8 4.2-1 5-.2.8-.6 2.6-.9 4-.8 4.1-1.5 6.8-4.5 17.5-13 46.8-14.3 52.7-17.8 84-1.4 12.2-.7 47.2 1.2 66 .2 2.2.7 7.8 1 12.5.6 9.1 2.9 25.8 4.4 31.8 6.2 25.4 10.7 38.8 20.7 60.2 3.5 7.6 6.4 14.1 6.4 14.4 0 .9 8.8 18.5 20.8 41.4 12.2 23.5 18.8 32.7 28.5 39.8 3.3 2.4 6.1 4.3 6.3 4.1.2-.1 2-5 3.9-10.7 4.3-12.3 5.1-14.3 11.5-27.6 6.7-13.7 9.2-16 41.9-37.5 16.6-11 17.8-12 21.2-17.8 4.6-7.8 4.4-7.7 7.4-6.1 1.6.9 4.1 1.1 7.7.6 4.7-.5 7.3-1 18-3.2 4.3-1 6.8-4 6.8-8.3 0-3.1.5-4.2 2.6-5.6 2.4-1.5 3-1.5 9.8.1 6.6 1.5 7.4 1.5 10.2.1 1.9-1 4.2-3.7 5.9-6.9 1.5-2.9 3.6-6.8 4.6-8.7 2.8-5.3 3.4-11.6 1.4-14.7-1.5-2.3-1.5-3.3-.4-9 1.1-5.6 1.7-6.7 4.6-8.4 4.7-2.8 7.5-9.5 7.7-18.1.1-5.6-.3-7.1-2.1-9.1-2-2.2-2.1-2.6-.9-8.3.9-4.8 1.6-6 3.1-6.1 19.3-.5 39.2-10.8 52-26.9 2.8-3.5 5.7-7.6 6.6-9.2.9-1.6 4.6-4.7 8.7-7.1 3.9-2.3 7.4-4.7 7.7-5.2 1.1-1.8-3-1-7.4 1.5-2.3 1.4-4.5 2.5-4.7 2.5-.1 0 .4-1.6 1.2-3.5 4.1-9.9 5.8-29.8 3.3-40.1-2.6-11.2-7.8-23.2-12.9-29.9-2.1-2.8-14.1-14.6-17-16.9-4.5-3.3-16.7-8.6-24.6-10.6-37.2-9.4-77.1 15.8-85.9 54.3-2.2 9.6-2.2 25.6 0 35 1.7 7 5.5 16.1 9.2 22.2 8.5 13.8 24.2 26.1 39.1 30.5 3.6 1.1 4.2 1.7 4.2 4.1 0 1.8-1.2 4.1-3.4 6.4-4.6 4.8-6.6 11.2-6.8 21.4-.1 7.6.1 8.6 2.1 10.2 2.2 1.8 2.2 2.1 1 6.9-1 4.1-1.7 5-3.5 5-3 0-7.1 3.5-9.5 8.1-1.1 2.2-2.4 3.7-2.8 3.5-.5-.3-3.3-.8-6.2-1.1-3-.3-6.5-.7-7.9-1-1.4-.2-5-.6-8.1-1-3.1-.3-6.7-.8-8-1.1-1.3-.3-4.4-.7-6.9-.9-12.9-1.1-55.2-19.1-74.7-31.7-17.3-11.2-40.6-30.9-44.6-37.6l-1.7-3 6.7 3.4c9.1 4.6 13.8 5.4 16.4 2.6 1-1.2 2.6-1.9 3.4-1.6 2.7 1.1.6-2.2-2.2-3.5-4.4-2-18.6-12.7-22.9-17.3-5.2-5.5-9.6-12-13.9-20.6-3.2-6.6-5.8-14.2-4.8-14.2.3 0 4.6 3.4 9.6 7.6 11.9 10 21.7 14.4 24.3 10.9 1.8-2.4.7-4.2-7.5-13.4-13.1-14.6-19.5-25.9-23.6-41.6-3.6-13.3-3.8-20.2-1-31.5.2-.8.4-1.8.4-2.2.2-1.4 6.9-7.8 8.3-7.9.7 0 2.8-.2 4.5-.4 4.1-.4 5.1 1 2.6 3.7-5.5 6.1 2 22 10.3 21.6 1 0 2.6.2 3.5.6 1.6.7 3.9-1.2 4.3-3.6.1-.7.6-1.9 1-2.7.6-1 .5-1.2-.2-.7-.7.4-1 .2-.6-.7.4-1.2 1.6-1.1 7.2.5 13.9 3.9 36.2.7 61.7-8.8 3.9-1.4 13.4-4.8 21.1-7.4 7.8-2.7 17-6.1 20.5-7.5 9.6-4.1 30.7-14.7 37.9-19.1 3.6-2.2 7.6-4.7 9-5.5 1.3-.8 3-1.9 3.6-2.4.7-.6 3.9-3.3 7.2-6 7.4-6.2 9.6-9.3 13.3-18.9 2.3-6.1 2.7-8 1.9-10.2-.9-2.1-.8-2.5.4-2.1.8.3 5.4.7 10.3.8 4.8.1 9.8.6 11.1 1 3 1.2 6.3 1.7 14.7 2.4 3.8.4 7.2.8 7.6 1 .3.2 2.8.7 5.5 1.1 5 .6 7.8 2 6.9 3.4-.3.5-.2 1.1.2 1.3 2.2 1.3 5.7-2.1 11.8-11.5 3.7-5.7 9-13.2 11.8-16.8 6.9-8.8 25.8-28.1 27.1-27.7 2.4.8 10.4 17.5 12.5 26.2 3.2 13 3.9 19.6 3.9 36 0 14.7-.4 20.1-2.3 34-.6 4.6-.4 5.4 3.1 10.5 2.1 3 5.7 10 8.1 15.5 2.4 5.5 5.2 10.9 6.3 12 1 1.1 2.2 3.2 2.5 4.7.8 3.3.6 3.2 4.8 1.4 6.8-2.8 13.6-13.5 13.7-21.4 0-3.6-.5-4.9-3.1-7.3-3.9-3.6-3.3-4.6 1.4-2.4 5.8 2.7 8.6 11.8 8.7 27.6 0 6.1-.6 11.7-1.6 15-4.3 14.3-5.6 17.7-8.2 21.7-2.6 3.9-2.8 4.7-2 9 1 5.2 1.1 6.8.6 9.7-.5 3.2 2.6 2.8 6.7-.9 2.1-2 4-3.4 4.3-3.2.7.8-4.1 15.3-8.4 25-3.3 7.3-4.1 10.2-3.2 10.7 1.7 1.1 5.9-1.3 9.2-5.3l2.7-3.3-.6 3c-1.9 8.4-8 20.3-17.8 35.3-16.2 24.4-25.1 33-45.7 44-8.2 4.3-26.3 11.8-31 12.7-.8.2-4 1.2-7 2.4-6.2 2.3-23.3 6.9-28.8 7.7-2.1.3-4.4.7-5.2.9-.8.2-4.4.5-8 .6-3.6.1-7.3.6-8.2 1.1-1 .4-4 .9-6.8.9-2.7.1-5 .5-5 1s1.8 1.8 4 2.9c2.3 1.2 4.4 2.8 4.7 3.6.3.8 1.6 2 2.8 2.7 5.2 2.7 14.9 12.3 16.8 16.6 1 2.4 2 4.9 2.2 5.5.1.6.7 2.4 1.3 3.9 1.8 4.3 1.4 12.7-.8 17.5l-2 4.3-4-4.3c-4.9-5.1-6-4.3-5.9 4.3.1 5.8-1.3 9.9-3.3 9.9-.7 0-3.3-1.8-5.9-4-2.7-2.3-5-3.6-5.4-3-.3.5-1.5 1-2.5 1-2.2 0-3.3 2.7-2.6 6.6.3 1.6.8 12.7 1.1 24.9.3 12.1.9 24.5 1.2 27.5.3 3 .7 6.5.8 7.7.3 3.3 2.1 5 6.4 5.7 7.3 1.1 13.9 11 12.6 18.9-.4 2.3-1.5 5.7-2.6 7.4l-1.8 3.3H385l2.6-4.2c5.1-8 2.6-24.6-4.6-31.8-4.2-4.1-11.2-8-14.5-8-1.2 0-3.2-.8-4.3-1.8-1.8-1.5-2.2-4-3.7-21.2-.9-10.7-1.9-21.4-2.2-23.8-.4-3.5-.1-5 2-8 5.4-8 7.5-26.6 4-35.4-2.4-6.1-7.3-13.5-12.6-18.9-3-3.2-4.2-5.1-3.6-6 .5-.9 4.5-1.5 12.6-2 10.4-.6 21.9-2.9 28.8-5.8 1.1-.4 5.8-2 10.5-3.5 13.6-4.4 32.6-14.2 42.5-22 2.2-1.7 4.9-3.8 6-4.6 4.9-3.8 19.6-19.1 20.6-21.6.2-.5 3-4.8 6.1-9.6 9.4-14.3 13.5-23 18.4-39.3 3-10.3 3.2-15.5.4-15.5-1.1 0-2 .3-2 .7 0 1.3-6.6 8.3-7.3 7.7-.3-.3.4-2.7 1.5-5.2 4.3-10 5-13.2 6.3-27.7.5-5.4.4-5.8-1-4.1-.8 1-1.3 2.2-1.1 2.5.2.3-.9 1.9-2.4 3.4-4.2 4.4-4.3 1.3-.3-7.3 5.8-12.4 8.3-24 8.3-38.7 0-20-3.6-29.5-12.7-33.4-5.4-2.3-8-2.4-12-.4-4.4 2.2-6.5 4.9-6.6 8.7-.2 3.2 0 3.3 3.8 3.6 2.2.2 4.5.8 5.2 1.4 1.4 1.1 1.8 9.4.5 10-.4.1-1.8 2-3.1 4-1.2 2.1-2.6 3.8-3.1 3.8-.4 0-1.3-1.5-2-3.3-2.9-7.4-4.4-10.7-9.2-20.6-4.7-9.7-5-10.7-4.4-15.5 2.3-16.4 2.4-21.7 1.3-40.1-.7-10.4-1.8-18.8-3.6-26.5-.6-2.5-1.4-5.6-1.6-7-2.1-10.2-9.7-27.1-13.4-29.6-1.7-1.2-2.8-1.3-6.3-.3-7.9 2.3-14.1 7.6-23 19.6-2.3 3.2-4.9 6.5-5.7 7.3-3.4 3.4-13 17.2-15.1 21.7-3.7 7.6-5.2 9.5-6.3 8.4-.6-.6-2.7-1.1-4.7-1.1s-4-.3-4.3-.7c-.4-.3-2.4-.7-4.4-.8-2.1 0-4.9-.6-6.3-1.2-1.4-.6-4.2-.9-6.3-.8-2 .2-4-.1-4.3-.6-.3-.5-4.3-.9-9-.9-4.9 0-8.3-.4-8-.9.7-1-2-.9-3 .1-.3.4-1.1.5-1.7.3-.7-.3-2.9-.6-5-.8-2.1-.3-4.8-1.4-6-2.5-3.7-3.4-12.7-5.5-21-4.7-4 .3-8.4.8-9.9 1.1-1.4.3-2.9 0-3.3-.6-.3-.5-1-.8-1.5-.5-1.5.9-2.9-2.1-5.5-12-2.8-10.5-8.6-27.9-10.4-31.3-.6-1.1-2.5-2.9-4.3-4.1-1.8-1.1-4.5-3-6-4.2-1.7-1.4-5.4-2.6-11-3.5-10.2-1.7-12-1.6-18.3.2zm-35.9 89.7c.4.4-.4.7-1.9.7-1.4 0-2.8.4-3.1.9-.3.5-1.9 1.1-3.5 1.3-1.7.2-2.8.1-2.5-.4.3-.4 0-.8-.5-.8-.6 0-1.1.4-1.1 1 0 2.3-17.1 4.3-18.4 2.1-1.3-2 2.8-3.2 12.5-3.8 5.7-.3 11.1-.9 11.9-1.4 1.7-.9 5.5-.7 6.6.4zm-43.8 19.2c.7 1.4 2.3 3 3.7 3.7 2.6 1.2 3.4 4.3 1.3 5-1.3.5-8.7-1.3-10.5-2.5-1.3-.8-.8-5.4.9-7.4 1.6-2 3.4-1.5 4.6 1.2zm-7.9 27.9c3.1 1.3 6.4 2.7 7.4 3 2.9.9 1.9 3.1-2.2 4.3-4.9 1.6-10.3.2-13.1-3.4-1.9-2.4-1.9-2.7-.4-4.5 2.1-2.2 1.5-2.3 8.3.6zm26.8 3.9c.6.6-2.8 2.4-4.2 2.2-.5 0-2.3-.5-4-.9l-3-.9 2.5-.8c2.5-.7 7.8-.5 8.7.4zm-12 1c-.1.5-.6.8-1 .8-.4-.1-1.4-.1-2.2-.1-.8 0-1.5-.4-1.5-.8s1.1-.8 2.5-.8 2.4.4 2.2.9zM131 148c1.4 1.1 3 2 3.6 2 3.7.1 4 7.4.3 8.5-4.4 1.4-8.9-3.3-8.9-9.4 0-3.6 1.4-3.9 5-1.1zm225.9 2.4c10.3 6.9 17.6 15.4 22.4 25.9 3.9 8.6 7.7 25.3 7.7 33.8 0 8.9-.6 8.7-1.4-.6-.9-10.2-6.1-29.1-9.7-35.1-4.7-7.7-11.6-15.1-19.6-21-6.4-4.7-8.8-7.4-6.7-7.4.4 0 3.6 2 7.3 4.4zm-29.3-2.3c13.8 2.4 22.6 7 32.3 16.7 13 13 18.5 26.6 18.4 45.7 0 9.6-.4 12.1-3 19.7-9 25.9-30.9 41.9-57.3 41.9-10.1 0-16.7-1.7-26.6-6.6-10.4-5.2-18.6-12.9-24.6-23-3.2-5.3-4.5-8.8-7.9-20.1-1.4-4.9-1-20.7.7-27.6 5.5-21.9 20.2-38.3 39.4-44.1 12.4-3.8 18.7-4.4 28.6-2.6zm-59.2 102.6c.6.6 3.6 3.7 6.6 6.9 4.4 4.5 4.9 5.3 2.4 3.9-4.7-2.7-11.9-10.3-15.8-16.9-5.2-8.7-4.4-10.3 1.1-2.1 2.6 3.9 5.1 7.5 5.7 8.2zm44.2 39.8c.4 1.8.1 3.2-1.1 4.5-2.3 2.6-4.2 2.5-5.6-.2-1-1.9-.8-2.5 1.7-4.5 3.7-2.9 4.2-2.9 5 .2zm7.7 13.5c.6 2.3-2.9 8.3-4.6 7.7-1.5-.5-1.8-9.7-.4-11.5.8-1 1.3-.9 2.7.3 1 .9 2 2.5 2.3 3.5zm-15.8-2c.3.5 2.2 1 4.2 1h3.5l-.7 4.7c-1 7.1-1.9 8.2-6.5 8.1-3.9 0-4-.1-4-3.7 0-8.2 1.7-13 3.5-10.1zm1.1 18.4c.9 3.6-3.4 14.6-5.7 14.6-2.2 0-3.3-3.3-2-5.9.6-1.1 1.1-3.1 1.1-4.5 0-2.6 3.1-6.6 5-6.6.5 0 1.2 1.1 1.6 2.4zm.8 22.2c2 2 2.1 6.4.1 9-1.5 1.9-1.5 1.9-3.4-.3-1.9-2.3-1.8-6.5.2-9.1 1.2-1.5 1.2-1.5 3.1.4zm-10.9 3.4c.3.5 1.5 1 2.6 1 2.5 0 2.4.9-1.2 8.5-4 8.4-5.5 9.4-6.4 4.4-.3-1.3-1.2-2.9-2-3.5-1.9-1.4-1.9-2.4.4-5.3 1-1.3 1.6-3.2 1.4-4.2-.4-1.5 0-1.9 2-1.9 1.4 0 2.9.4 3.2 1zM276 356.8c0 3.4-2.1 4.3-4.1 1.7-2.5-3.1-2.4-3.5 1.1-3.5 2.2 0 3 .5 3 1.8zm7.8 5.4c1.6 1.6-.2 4.4-3.3 5.2-3 .8-6.5-.8-6.5-3 0-2.7 7.5-4.5 9.8-2.2zm-20.3 3.8c.3.5.8 3 1.1 5.4.7 5 .9 4.8-9 6.5-7.9 1.4-8.5 1.4-5.8-.8 3.2-2.7 2.7-4.1-1.3-4.1s-5.5-2.1-3.5-4.6c1.6-1.8 6.8-1 8.7 1.5 1.1 1.5 1.2 1.5 1.3-.1 0-3.2 6.9-6.3 8.5-3.8zm-25.7 15.2c-.2 1.3-.7 2.3-1.3 2.3-.5 0-1.1-1-1.3-2.3-.2-1.5.2-2.2 1.3-2.2s1.5.7 1.3 2.2zm115.6 58.3c.3 6.6.8 13.1 1.1 14.5.2 1.4.6 5.8.9 9.7.4 8.6 3 13.2 7.4 13.2 9.1-.2 14 3.1 18.8 12.3 3.4 6.7 2.8 15.6-1.2 17.2-1 .4-1.2-.6-.7-4.2.8-6.8-1-12.1-5.5-16.5-4-3.9-8.2-5.6-8.2-3.3 0 .7 1.2 2.3 2.6 3.7 8.5 7.9 8.5 21.2 0 22.1l-3 .3-1.2-8c-.6-4.4-1.8-9.6-2.7-11.5-2.3-5.4-9.8-12.4-18.1-17-4.2-2.3-7.6-4.7-7.7-5.3-.2-2.6.2-11.6.7-18.6l.6-7.4 7.2-7.1c3.9-3.9 7.4-6.9 7.7-6.6.4.3.9 5.9 1.3 12.5z"/><path d="M329.1 165.6c0 1.1.3 1.4.6.6.3-.7.2-1.6-.1-1.9-.3-.4-.6.2-.5 1.3zM322.5 202.2c-3.4 2.6-4.5 5.7-5.1 13.6-.5 7.1 1.4 11.7 6 14.1 2.1 1.2 2.7 1.1 4.9-.5 3.7-2.8 4.7-4.9 5.5-11.8l.8-6.3-2.6 1.5c-3.2 1.8-6 1-6-1.6 0-2.7 2.5-4.5 5-3.7 2.8.9 2.6-1.6-.2-4.2-3.5-3.1-5.4-3.4-8.3-1.1zM290.5 350c-.3.5.3 1 1.5 1s1.8-.5 1.5-1c-.3-.6-1-1-1.5-1s-1.2.4-1.5 1zM420.2 43.1c-.9 1.7-2.7 4.4-3.9 5.8-2.6 3.3-14.8 25.6-15.8 29.1-.4 1.4-1.2 3.1-1.8 3.8-.5.7-.7 1.5-.4 1.8 1.3 1.3 3.9-.8 5.3-4.3 3.7-9.1 11.6-24.7 15.4-30.5 3.6-5.6 4.9-8.8 3.5-8.8-.3 0-1.4 1.4-2.3 3.1zM431 110.4c0 .2.7.7 1.6 1 .8.3 1.2.2.9-.4-.6-1-2.5-1.4-2.5-.6zM430.1 207.6c-4.1 5.2-4.8 11-2.3 19.9 1 3.6 4.7 5.8 7.4 4.4 3-1.6 5.8-7 5.8-11.1 0-3.3-.3-3.7-2.7-4-3.6-.4-4.6-4.6-1.4-5.5 2.6-.7 2.7-2.5.3-4.6-2.6-2.4-4.7-2.1-7.1.9zM395.5 237.6c-6.1 3.2-8.8 5.5-7.7 6.6 1 1 16.2-6.8 16.2-8.3 0-1.6-3.4-.9-8.5 1.7zM409.5 236.8c-3.5 1.2-5.8 2.9-5.4 4 .5 1.4 8.9-2.2 8.9-3.8 0-1.1-.5-1.1-3.5-.2zM421 239.5c2.9 3.7 4.3 10 4.4 19.9.1 6.8.6 10.1 1.4 10.4 2.7.9 4.2-8.6 2.8-18.2-.7-4.5-5.3-13.3-6.4-12.1-.3.3-1.2-.1-2.1-.7-1.5-1.2-1.5-1.1-.1.7zM402.4 244.6c-5.5 2.5-6.7 4-6 7.5.3 1.8 1.8 4.5 3.2 6 1.4 1.5 3.6 3.9 4.9 5.3 1.3 1.4 2.8 2.6 3.3 2.6 2.4 0 6-5.4 7.2-10.7 2-8.4 2-8.7 1.1-10.1-1.1-1.9-10.2-2.2-13.7-.6zM394.5 292.8c-4.2 3.6-8.5 13-9 20.2-.3 3.5 4.7 8.4 7.7 7.4 10-3.1 16.3-20.5 10-27.7-1.9-2.2-6.1-2.1-8.7.1zM253.6 402.2c.3 1 1 1.8 1.6 1.8.5 0 .6.4.3 1-.3.5-.1 1 .5 1s.9.4.6.9c-.4.5-.2 1.1.4 1.3.6.2 1.2 1.2 1.5 2.3.2 1.1 1.4 4.6 2.5 7.8 4.1 11.5 2.3 26.4-4.9 41.1-5.7 11.8-8 14.3-17.9 20.1-4 2.4-7.3 4.7-7.3 5.1-.1 1.6 3.8 2.1 11.9 1.7 6.1-.4 9.7-.1 13.5 1.1 11.2 3.5 13.9 6.8 15.3 18.4l.7 6.2h9.3c5.2 0 9.4-.2 9.4-.4 0-.3-.7-3.7-1.5-7.6-1.7-8-2.3-12.9-3-24-.3-4.1-.9-10.2-1.4-13.5-.8-5.6-.7-25 .3-34.3.5-4.9-.4-5.9-2.9-3.2-1 1.1-2.3 2-3 2-.6 0-2.9 1.3-5.1 3-5.8 4.4-7.4 4-7.4-1.8 0-2.6-.5-6.7-1.1-9.2-1.1-5.2-5.8-15-7.1-15-.5 0-.7-.3-.5-.8.3-.4-.9-2.1-2.5-3.7-1.7-1.8-2.6-2.3-2.2-1.3zM316.6 482.7c-.3.4-.6 1.1-.6 1.6 0 .6.3.8.6.4.7-.7 3.7 1.6 9.5 7.4 5.4 5.4 7.9 12.3 6.2 17-1 2.6-.9 2.9.9 2.9 5.5 0 6.6-9.9 1.9-17.1-1.5-2.4-4.2-5.7-5.8-7.2-3-2.8-11.6-6.1-12.7-5z"/><path d="M247.7 494.4c-.4 1 .7 1.7 3.8 2.5 5 1.3 8.9 5.3 10.6 11.1 1.1 3.4 1.6 4 4.1 4 3.4 0 3.5-1 .4-7.6-3.2-6.8-8.3-11-14-11.3-3-.1-4.5.3-4.9 1.3z"/></svg>