<svg version="1" xmlns="http://www.w3.org/2000/svg" width="682.667" height="682.667" viewBox="0 0 512.000000 512.000000"><path d="M237.8 147.7c-2.7.2-4.8.8-4.8 1.4 0 .5-1.1.9-2.5.9-2.3 0-4 .6-11.2 3.6-1.7.8-3.8 1.4-4.7 1.4-.9 0-1.6.3-1.6.8 0 .4-2 1.6-4.5 2.7s-4.5 2.3-4.5 2.7c0 .5-.7.8-1.5.8s-1.5.4-1.5 1c0 .5-.7 1-1.5 1s-1.5.4-1.5.8-1.5 1.6-3.2 2.7c-3.6 2.1-18.1 16.3-21.3 20.9-1.1 1.5-2.5 3.3-3 4-1.4 1.4-4.5 8.1-4.5 9.5 0 .6-.3 1.1-.8 1.1-.4 0-1.3 1.5-2 3.2-.8 1.8-1.8 4.2-2.2 5.3-1.1 2.6-3 10.9-3.7 16-.3 2.2-.9 4.4-1.4 4.9-1.3 1.4-1.2 38.6.1 38.6.6 0 1 2 1 4.5 0 4-.2 4.5-2.2 4.5-1.3 0-3.6-1.1-5.2-2.5s-3.5-2.5-4.3-2.5c-.7 0-1.3-.5-1.3-1 0-.6-.4-1-1-1-1.1 0-1.3 7.1-.4 11.8 1.2 5.8 9.6 12.2 16.2 12.2.7 0 1.2 1.3 1.2 3 0 1.6.4 3 .9 3s1.1 1.5 1.4 3.2c.9 5.5 1.8 9.2 2.7 11.3.8 1.8 2.2 8.3 3.7 17.2.3 1.8.9 3.3 1.3 3.3s1.1 2.7 1.5 6c.4 3.3 1.1 6 1.6 6s.9 1.6.9 3.5.4 3.5.9 3.5 1.2 3.1 1.6 7c.4 3.8 1.1 7 1.6 7s.9 1.5.9 3.4.5 3.8 1 4.1c.6.3 1 1.5 1 2.6 0 1 .4 1.9.9 1.9 1.3 0 13.9 11.6 19.7 18.2.7.7 2.6 2.6 4.3 4.2 3.7 3.3 3.6 5-.2 5.4-1.5.2-2.7.8-2.7 1.3s-1.1.9-2.4.9c-1.4 0-2.7.4-3 .9-.3.5-2.3 1.2-4.3 1.6-2.1.4-4 1-4.3 1.3-.3.4-4.1 2.5-8.5 4.7-4.4 2.1-8.2 4.2-8.5 4.6-.3.4-1.8 1.1-3.3 1.4-1.5.4-2.7 1-2.7 1.4 0 .4-1.5 1.5-3.2 2.6-1.8 1-3.9 2.4-4.5 2.9-.7.6-2.4 2-3.8 3.1-1.5 1.1-4.1 3.2-5.8 4.7-1.8 1.5-3.8 2.8-4.4 2.8-.7 0-1.3.4-1.3 1 0 .5-1.8 2.8-4 5s-4 4.4-4 4.8c0 .4-.9 1.4-2 2.2-1.1.8-2 1.9-2 2.6 0 .6-1.1 2.4-2.5 4s-2.5 3.2-2.5 3.6c0 .5-1.6.8-3.5.8s-3.5.4-3.5 1c0 .5-1 1-2.1 1-2.6 0-12.3 3.2-12.7 4.2-.2.5-1 .8-1.8.8s-1.4.4-1.4 1c0 .5-.5 1-1 1-1.3 0-2.6 1-9.3 7.5-6.1 5.8-10.5 12.3-11.4 16.5-.3 1.7-.9 3-1.4 3-.5 0-.9 1.6-.9 3.5 0 3.1.3 3.5 2.5 3.5 2.5 0 4.5-2.5 4.5-5.7 0-1.1.9-2.9 2-4.1 1.1-1.2 2-2.8 2-3.6 0-.8 1-2.5 2.3-3.8 1.3-1.3 2.6-3.1 3-4.1.3-.9 1.4-1.7 2.2-1.7.9 0 1.3-.5 1-1-.3-.6-.3-1 .2-1 .4 0 2.1-1.1 3.7-2.5s3.3-2.5 3.7-2.5c.4 0 1.4-.3 2.3-.6 1.3-.5 1.6.2 1.6 3.5 0 2.3-.4 4.1-1 4.1-.5 0-1 .7-1 1.5 0 1.3-8.3 15.1-11 18.2-2.4 2.8-.8 3.3 10.4 3.3h11.5l.6-5.5c.4-3 1.1-5.8 1.6-6.1.5-.3.9-1.8.9-3.5 0-1.6.5-2.9 1-2.9.6 0 1-1 1-2.3 0-1.2 1.4-4.9 3-8.2 1.6-3.3 3-6.5 3-7 0-.6.9-1.7 2-2.5s2-2 2-2.7c0-.7.5-1.3 1-1.3.6 0 1-.7 1-1.6 0-.9 1.5-3.2 3.3-5.1 7.5-8.2 14.6-15.3 15.2-15.3.3 0 1.7-1.1 3.1-2.5 1.4-1.4 3.2-2.5 4-2.5.8 0 1.2-.5.9-1-.3-.6.1-1 .9-1 .9 0 1.6-.5 1.6-1 0-.6.7-1 1.5-1s1.5-.4 1.5-.9 1-1.3 2.3-1.7c1.2-.4 2.4-1 2.7-1.3.9-1.2 5.9-4.1 7-4.1.6 0 2-.9 3.2-2 1.2-1.1 3-2 4-2s1.8-.5 1.8-1c0-.6.5-1 1.1-1 .5 0 3.6-1.2 6.7-2.6 3.1-1.4 7.2-2.8 9-3.1 1.7-.3 3.2-1 3.2-1.4 0-.5 1.1-.9 2.5-.9s2.5.4 2.5 1c0 .5 1.1 1 2.5 1s2.5-.5 2.5-1c0-.6 6.7-1 18-1 9.9 0 17.9.3 17.8.7-.9 3.4 6.2 9.3 11.2 9.3 1 0 2.2.4 2.5 1 .9 1.5 8.8 1.2 12.7-.4 4.4-1.9 9.8-6.9 9.8-9.1 0-.9.5-1.3 1-1 .6.4 1-1.5 1-4.9V407l8.8.1c7.8 0 12.3.4 27.2 2.5 2.5.3 4.9 1 5.5 1.5.5.5 2.6.9 4.8.9 2.3 0 3.6.4 3.2 1-.4.6.6 1 2.3 1 3.1 0 13.3 2.9 14.2 4.1.3.3 2.2.9 4.3 1.3 2 .4 3.7 1 3.7 1.4 0 .5 1.6 1.4 3.5 2.1 3.5 1.2 3.5 1.3 3.5 7.1 0 3.2-.4 6.2-1 6.5-.5.3-1 1.5-1 2.6s-1.1 4.5-2.5 7.4c-1.3 3-2.7 6.6-3.1 8-.3 1.4-1 2.5-1.5 2.5s-.9.9-.9 2-.3 2-.8 2c-.8 0-4.2 7.3-4.2 9 0 .6-.3 1-.8 1-.9 0-2.8 4.5-3.7 8.7-.4 1.8-1.1 3.3-1.6 3.3s-.9 1.1-.9 2.4c0 1.4-.4 2.7-.9 3-1.2.8-2.2 6.4-2.8 15.8l-.5 7.8H475v-6.9c0-3.9-.4-7.2-.9-7.5-.4-.3-1.1-1.9-1.4-3.5-1.1-5.3-16-20.7-21.9-22.7-1-.4-1.8-1-1.8-1.4 0-.5-1.3-1.1-3-1.5-1.6-.4-3-1.1-3-1.6s-1.3-.9-3-.9c-1.6 0-3-.5-3-1 0-.6-1.1-1-2.4-1-1.5 0-2.7-.7-3.1-1.9-.3-1-2-3.2-3.8-4.9-1.7-1.7-3.8-3.7-4.4-4.4-.7-.7-1.8-1.9-2.5-2.6-.7-.7-2.2-2.3-3.4-3.5-3-3.1-7.3-6.7-8.2-6.7-.4 0-2.3-1.6-4.1-3.5-1.9-1.9-4.3-3.7-5.3-4.1-1-.3-1.8-1-1.8-1.5s-.5-.9-1.1-.9c-.6 0-1.7-.6-2.4-1.3-3.3-2.9-4.5-3.7-5.5-3.7-.5 0-1-.5-1-1 0-.6-.8-1-1.9-1-1 0-2.4-.7-3.1-1.5-.7-.8-1.9-1.5-2.6-1.5-.8 0-1.4-.5-1.4-1 0-.6-.7-1-1.5-1s-1.5-.4-1.5-1c0-.5-1.6-1.2-3.5-1.6-1.9-.3-3.5-1-3.5-1.5s-.9-.9-2-.9-2-.4-2-.9-1.7-1.2-3.7-1.6c-2.1-.4-4.2-1-4.8-1.3-2-1.3-8-3.2-10.2-3.2-1.3 0-2.3-.4-2.3-.9 0-.8-11.3-2.7-22.2-3.7-3.2-.3-5.8-1-5.8-1.5s-6-.9-13.5-.9c-11.3 0-13.5-.2-13.5-1.5 0-.8 1.1-1.7 2.5-2.1 1.4-.3 2.5-1 2.5-1.5s.7-.9 1.5-.9 1.5-.4 1.5-.9 1.4-1.2 3-1.6c1.7-.4 3-1 3-1.4 0-.4 1.8-1.4 4-2.1 2.2-.7 4-1.7 4-2.2 0-.4.6-.8 1.3-.8.6 0 3.9-1.4 7.2-3 3.3-1.6 6.6-3 7.3-3 .6 0 1.2-.5 1.2-1 0-.6.9-1 2-1s2.1-.6 2.1-1.3c.5-4.9-.5-32.3-1.2-32.5-.5-.2-.9-4.1-.9-8.7s-.4-8.6-.8-8.9c-.5-.3-1-5.4-1.1-11.3-.1-5.9-.5-10.9-.9-11-.4-.2-.3-10.1.1-22 .4-12 .6-27.2.4-33.8-.7-20.6-3.4-41.7-5.8-45-.4-.6-1-2.7-1.4-4.8-.4-2-1.1-3.7-1.6-3.7s-.9-.6-.9-1.4c0-1.7-3.2-8-4.2-8.4-.5-.2-.8-1.2-.8-2.3 0-1-.4-1.9-.8-1.9s-1.6-1.4-2.7-3.2c-2.4-4.1-13.2-14.9-17.4-17.4-1.7-1-3.1-2.2-3.1-2.6 0-.4-.5-.8-1.1-.8-.5 0-3.5-1.1-6.5-2.5s-6.1-2.5-6.8-2.5c-.8 0-1.6-.5-1.8-1.1-.4-1.2-26.1-2.1-35-1.2zm29.9 7.5c2.9 1.3 6.5 4.6 9.7 9.2 1.1 1.5 2.8 3.7 3.8 4.9 3.1 3.8 3.8 4.9 8.2 13.2.6 1.1 1.3 2.2 1.6 2.5 1.3 1.3 2.9 5.1 3.5 8.4.4 2 1.1 3.9 1.6 4.2.5.3.9 1.8.9 3.5 0 1.6.5 2.9 1 2.9.6 0 1 5 1 13s-.4 13-1 13c-.5 0-1 1.3-1 2.9 0 1.7-.4 3.2-.9 3.5-.4.3-1.1 1.9-1.4 3.6-.4 1.7-1.5 4-2.6 5.2-1.1 1.1-2.7 3.6-3.6 5.5-.9 1.8-2.5 3.9-3.6 4.6-1 .6-1.9 1.6-1.9 2.1s-.9 2-2.1 3.2l-2 2.2 3 3.1c1.7 1.8 3.1 3.3 3.1 3.5 0 .8-15.3.6-16.3-.2-.7-.5-2.5-1.2-4.2-1.5-7.7-1.4-13.2-2.8-15-3.6-2.1-1-5.2-1.8-12.5-3-4.3-.8-4.2-.8 2.6-1 3.9 0 7.4-.4 7.8-.8.4-.4 3-.9 5.9-1.1 2.9-.2 5.7-.7 6.2-1.2.6-.4 3.2-1.1 5.8-1.5 5-.8 16.1-5.8 15-6.9-.4-.3 0-.6.7-.6 1.7 0 8-6.8 8-8.6 0-.8.5-1.4 1-1.4.6 0 1-2.8 1-6.5 0-3.6-.4-6.5-.9-6.5s-1.1-.8-1.5-1.8c-1.2-3.7-6.7-10.2-8.6-10.2-.5 0-1-.4-1-.8 0-.5-1.8-1.6-3.9-2.6-3.4-1.5-6.3-1.6-21.3-1.2-23.3.6-54.9 4.1-53.2 5.9.4.4-.7.7-2.4.7s-3.3.4-3.6.9c-.4.5-2.4 1.2-4.6 1.6-2.2.4-4 1-4 1.3 0 .4-1.5 1.3-3.2 2.1-4.3 1.9-9.9 7.6-12.1 12.4-1.8 4-2.4 14.7-.7 14.7.5 0 1.2 1.6 1.6 3.5.3 2 .8 3.4 1.1 3.2.2-.3 1.7.8 3.3 2.4 1.6 1.6 3.6 2.9 4.5 2.9.9 0 1.4.4 1 .9-.3.5 2.4 1.3 6 1.6 7 .8 8.3 1.9 3.5 2.9-1.7.3-4.7 1.7-6.8 3.1-2 1.4-4.4 2.5-5.3 2.5-.9 0-1.9.6-2.2 1.4-.3.8-2.2 2-4.1 2.7-2 .7-3.6 1.7-3.6 2.1 0 .4-.7.8-1.5.8s-1.5.4-1.5 1c0 .5-1.1 1-2.4 1-2.2 0-2.5-.5-3.1-5.8-1.5-12.8-.5-45.2 1.5-45.2.4 0 1-2.5 1.3-5.6.3-3.1 1.1-6.2 1.6-6.7.6-.6 1.1-1.9 1.1-2.9s.5-1.8 1-1.8c.6 0 1-.8 1-1.8 0-3 5-11.7 9.8-16.8 1.2-1.4 2.2-2.9 2.2-3.5 0-1.1 12.8-13.9 13.9-13.9.4 0 2-1 3.4-2.3 4.1-3.6 7-5.7 8-5.7.5 0 2.1-.8 3.5-1.9 1.5-1 3.8-2.2 5.2-2.6 1.4-.4 2.7-1.1 3-1.4.9-1.2 10.5-4.1 13.3-4.1 1.6 0 2.6-.4 2.2-1-.4-.6.8-1 2.7-1.1 1.8 0 4.2-.4 5.3-.9 3.1-1.3 24-1.2 27.2.2zm-44.4 107.5c-.7.2-2.1.2-3 0-1-.3-.4-.5 1.2-.5 1.7 0 2.4.2 1.8.5zm-5.3 1.1c0 .4-.9 1.5-2 2.5-1.1.9-2 1.2-2 .7s-1.1-1.2-2.5-1.6c-4-1-2.9-2.4 2-2.4 2.5 0 4.5.3 4.5.8zm-9.2 5.3c.2.5 1 .9 1.8.9 1 0 .7.8-1.1 2.5-2.6 2.7-2.9 3.6-1.9 7.2.4 1.4 1.4 2.3 2.6 2.3 1.7 0 1.8.2.4 1.5-.8.8-3.2 1.5-5.5 1.5-2.2 0-4.2.4-4.6 1-.3.5-3.2 1.2-6.5 1.6-3.3.4-6 1-6 1.4 0 .8-4.6 1.7-13.7 2.6-2.9.3-5.3 1-5.3 1.5s-2.2.9-5 .9h-5v-4c0-3.3.3-4 2-4 1.1 0 2-.5 2-1 0-.6 1.1-1 2.4-1 1.4 0 2.8-.5 3.1-1 .3-.6 1.5-1 2.6-1 1 0 1.9-.4 1.9-1 0-.5 1.1-1.2 2.5-1.6 1.4-.3 2.5-1 2.5-1.5s.6-.9 1.4-.9c.7 0 1.9-.7 2.6-1.5.7-.8 2.1-1.5 3.1-1.5 1.1 0 1.9-.4 1.9-.8 0-1.1 7.7-5 11-5.5 3.4-.6 10.4.3 10.8 1.4zm38-.2c.2.6 1.7 1.1 3.2 1.1 1.6 0 3.2.4 3.5 1 .3.5 1.7 1 3 1s2.5.6 2.7 1.2c.4 1 4.5 1.3 16 1.3h15.5l-2.6 2.7c-1.4 1.6-3.1 2.8-3.7 2.8-.7 0-1.4.7-1.8 1.5-.3.8-1.5 1.5-2.6 1.5s-2 .4-2 1c0 .5-1.3 1-2.9 1-1.7 0-3.3.4-3.6 1-.4.6-6.3 1-14.5 1s-14.1-.4-14.5-1c-.3-.6-4-1-8.1-1-4.3 0-7.4-.4-7.4-1s-2.4-1-5.2-1.1c-2.9 0-4.7-.3-4-.6 1.4-.6 1.6-7.9.2-8.8-1.8-1.1-1.1-3.5 1-3.5 1.1 0 2-.4 2-.9 0-1.5 4.6-2 15.5-1.6 5.9.2 10.1.8 10.3 1.4zM148.5 283c.3.5 1.7 1 3.1 1 1.3 0 2.4.3 2.5.7 0 .5.2 2.3.3 4.1.3 2.9.2 3.1-1.2 2-4.9-3.9-7.2-6.3-7.2-7.5 0-1.5 1.6-1.7 2.5-.3zm144.9 3.2c1.6 1 2.2 100.8.6 100.8-.6 0-1.6.4-2.3 1-.7.5-2.7 2.1-4.4 3.6l-3.3 2.6v-2.6c0-1.4-.4-2.6-1-2.6-.5 0-1-1.8-1-3.9 0-2.2-.4-4.2-.9-4.6-.5-.3-1.3-4.6-1.7-9.5-.3-5-1-9-1.5-9s-.9-1.2-.9-2.6c0-2.2-.3-2.5-2.2-2-1.3.3-15.9.6-32.5.6-26.3 0-30.3.2-30.3 1.5 0 .8-.3 1.5-.7 1.5-2.5 0-3.7 6.3-4.1 21.2-.2 8.7-.6 15.8-1 15.8-.3 0-1.2-.7-2.1-1.5-6.8-6.4-8.1-7.8-8.1-8.6 0-.5-.5-.9-1.1-.9-.7 0-2.5-1.3-4.1-3-1.5-1.6-3.3-3-3.9-3-1.6 0-3.9-2.6-3.9-4.4 0-.9-.4-1.6-.9-1.6s-1.2-3.4-1.6-7.5c-.4-4.1-1.1-7.5-1.6-7.5s-.9-1.5-.9-3.4-.4-3.7-.9-4.1c-.5-.3-1.3-3.4-1.6-7-.4-3.6-1.1-6.5-1.5-6.5-.4 0-1-1.5-1.3-3.3-1.4-7.7-2-10.3-2.7-11.2-.5-.6-1.2-3.8-1.6-7.3-.3-3.4-1.1-6.2-1.5-6.2-.5 0-.9-1.6-.9-3.5s-.5-4.4-1.2-5.4c-2.4-3.9-.6-4.7 11.3-5.5 6.3-.4 11.8-1.1 12.3-1.6.6-.6 2.4-1 4.1-1 1.7 0 3.6-.5 4.2-1.1.6-.6 4.5-1.3 8.7-1.6 4.2-.3 7.6-1 7.6-1.4 0-.5 2-.9 4.5-.9s4.5.4 4.5 1 3 1 6.9 1c3.7 0 12.6.5 19.7 1.1 12.9 1 34-.3 32.9-2.1-.3-.4.5-1 1.8-1.4 1.2-.3 3.5-1.7 5.2-3.1 2.1-1.9 3.1-2.2 3.4-1.3.2.7.9 1.6 1.5 2zM269 362.8c0 .4-.8 1.9-1.7 3.2-1.6 2.2-1.8 4.9-1.8 19.7 0 12.4.4 17.6 1.3 18.5.6.6 1.2 2.6 1.2 4.4 0 1.8.6 3.5 1.3 3.7.6.3-.5.6-2.6.6-2.3.1-3.6-.3-3.2-.9.7-1.2-10.2-1.6-33-1.1l-16 .3-1.2-2.8c-.7-1.5-1.3-3.8-1.3-5 0-1.2-.5-2.4-1.1-2.6-1.5-.5-1.6-27.6-.1-30.3.5-1.1 1.6-3.5 2.2-5.3l1.2-3.2h27.4c15.1 0 27.4.3 27.4.8z"/><path d="M195 278.7c0 3.9 1.8 5.7 3.7 3.7 2.1-2.1 1.3-5.8-1.4-6.2-1.9-.3-2.3.1-2.3 2.5zM181 283c0 3.4 2.1 4 4.6 1.5 1.4-1.3 1.4-1.7 0-3-2.5-2.5-4.6-1.9-4.6 1.5zM167.5 287c-.9 2.7.1 4 3.1 4 2 0 2.4-.5 2.4-3s-.4-3-2.4-3c-1.6 0-2.7.7-3.1 2zM227 277.5c0 2.1.5 2.5 3 2.5s3-.4 3-2.5-.5-2.5-3-2.5-3 .4-3 2.5zM246 278.8c0 1.5.5 3.3 1.2 4 1.7 1.7 3.8-.4 3.8-3.9 0-2.4-.4-2.9-2.5-2.9s-2.5.5-2.5 2.8zM262.3 277.5c-1.7 1.9-1.6 4 .2 5.5 3.4 2.8 6.3-2.3 3.1-5.6-1.7-1.7-1.8-1.7-3.3.1zM274.2 277.2c-1.6 1.6-1.5 3.6.3 5.4 1.3 1.4 1.7 1.4 3 0 2.2-2.1 2-6.6-.3-6.6-1 0-2.3.5-3 1.2zM253.7 301.2c-.3.7-.4 5.8-.2 11.3.1 5.5 0 7.1-.2 3.5-.2-3.6-.8-6.9-1.4-7.5-.5-.5-.9-2.2-.9-3.7 0-2.8-.1-2.8-6-2.8h-6v6.9c0 3.9.5 7.3 1 7.6.6.3 1 2.7 1 5.3 0 7.7 1.2 18.2 2 17.7.4-.3 1.1.6 1.4 2 .4 1.4 1.1 2.5 1.7 2.5.6 0 .7-.5.4-1-.4-.6.9-1 3.2-1 2.2 0 4.4-.5 5-1.1.6-.6 1-3.6.8-6.7-.1-3.2 0-3.8.2-1.5.2 2.4.8 4.3 1.4 4.3.5 0 .9 1.2.9 2.6 0 2.4.3 2.6 2.8 1.9 1.5-.3 4.2-.9 6-1.2 2.9-.5 3.2-.8 3.2-4.2 0-2.1-.3-4.1-.7-4.5-.9-.9-1.1-2.3-1.8-14.1-.4-5.5-.9-10.7-1.2-11.5-.9-2.1-1-2.8-1.2-4.5-.1-1.9-10.7-2.2-11.4-.3zM223.3 304.7c-1.5.5-1.7 3.9-.5 4.7.5.3 1.2 6.3 1.5 13.4.3 7.1 1.1 14.8 1.8 17.1l1.2 4.1h5.3c6.7 0 6.9-.7 5.4-14.5-.6-5.5-1.4-12.8-1.6-16.3-.3-3.4-1-6.2-1.5-6.2s-.9-.7-.9-1.5c0-1.1-1.2-1.5-4.7-1.4-2.7 0-5.4.3-6 .6zM207.8 306.2c-.4 1.6.8 22.5 1.7 28.8.4 2.5 1.1 4.9 1.6 5.5.5.5.9 1.7.9 2.7 0 1.9.6 2.1 5.5 1.8 6.3-.3 6.7-.7 6.1-6.3-.3-2.9-1.1-10.7-1.7-17.5-.7-6.7-1.6-12.2-2.1-12.2-.4 0-.8-.9-.8-2 0-1.8-.7-2-5.4-2-3.4 0-5.5.5-5.8 1.2zM233.6 466.8c-.3.6-4.2 1.3-8.6 1.7-4.4.4-7.7 1.1-7.4 1.6.3.5-.3.9-1.3.9-2.8.1-12.4 3.6-11.6 4.3.3.4-.2.7-1.2.7s-3.3 1.1-5.1 2.5c-1.8 1.4-3.7 2.5-4.2 2.5-.4 0-1.8 1-2.9 2.2-1.1 1.3-3.2 3.2-4.6 4.3-1.5 1.1-2.6 2.4-2.7 2.9 0 .5-.7 1.6-1.5 2.5-.8.9-2.3 2.6-3.5 3.8-1.1 1.3-2 3.1-2 4 0 1-.7 3.1-1.5 4.7-2.1 4-1.9 6.6.5 6.6 1.1 0 2-.7 2-1.5s.4-1.5.9-1.5 1.1-1 1.5-2.3c.3-1.2 1.4-3.2 2.6-4.4 1.1-1.2 2-2.7 2-3.3 0-.5.5-1 1-1 .6 0 1-.5 1-1.1 0-1.5 6.5-7.9 8-7.9.6 0 .8-.5.5-1-.3-.5.1-1 .9-1 .9 0 1.6-.4 1.6-.9s1.7-1.7 3.8-2.6c2-1 4.9-2.6 6.3-3.6 1.4-1 4.5-2.1 6.7-2.5 2.3-.4 3.9-1 3.6-1.5-.3-.5 1-.9 2.8-.9 1.9 0 4-.6 4.6-1.2 1.8-1.8 37.6-1.8 39.3-.1.7.7 2.6 1.3 4.1 1.3 1.5 0 2.8.4 2.8 1 0 .5.9 1 2.1 1 2 0 14.3 5.5 16.6 7.5.7.5 2.4 1.9 3.9 3 1.4 1.1 3.1 2.6 3.7 3.3.7.7 2.4 2.5 4 3.9 1.5 1.5 2.7 3 2.7 3.5s.9 1.8 2 3 2 2.8 2 3.5c0 .7.4 1.3.9 1.3s1.2 1.4 1.6 3c.6 2.5 1.1 3 3.7 3 1.9 0 2.8-.4 2.6-1.2-.2-.7-1-3.4-1.7-6.1-.7-2.6-1.7-4.7-2.2-4.7-.5 0-.9-.5-.9-1 0-.6-1.1-2.3-2.5-3.8s-2.5-3-2.5-3.3c0-2.3-17.8-15.9-20.8-15.9-.6 0-1.2-.3-1.4-.8-.4-.9-10-4.2-12.4-4.2-.9 0-1.4-.3-1-.8.4-.4-3-1.3-7.6-2.1-10.6-1.7-30.4-2.5-31.2-1.3z"/><path d="M253 474.7c0 .7-.6 1.3-1.4 1.3-2.1 0-2.8 2.9-1.2 4.6 2.4 2.4 4.6 1.7 4.6-1.4 0-2.7-2-7-2-4.5zM213.6 483.3c-2.4 1.7-1.3 5.7 1.5 5.7 1.5 0 1.9-.7 1.9-3.5 0-3.8-.6-4.2-3.4-2.2zM227.3 485.7c-1.8.2-3.3.8-3.3 1.4 0 .5-1.3.9-2.9.9-1.6 0-3.1.3-3.3.7-.1.5-2.8 2.1-6 3.7-7.7 3.9-14.4 10.5-16.5 16.3l-1.1 3.2 51.1.1h51.1l-3-3.1c-7.1-7.7-10.3-10.7-13.3-12.5-1.7-1-3.1-2.1-3.1-2.5 0-.4-1.3-1-3-1.4-1.6-.4-3-1.1-3-1.6s-.9-.9-2-.9-2-.5-2-1c0-.6-1.1-1-2.4-1-1.3 0-2.6-.5-2.8-1.2-.4-1.2-27.9-2.1-34.5-1.1zm1.4 13.9c-.3.3-1.2.4-1.9.1-.8-.3-.5-.6.6-.6 1.1-.1 1.7.2 1.3.5zm32 0c-.3.3-1.2.4-1.9.1-.8-.3-.5-.6.6-.6 1.1-.1 1.7.2 1.3.5zm-37 2c-.3.3-1.2.4-1.9.1-.8-.3-.5-.6.6-.6 1.1-.1 1.7.2 1.3.5zm41 0c-.3.3-1.2.4-1.9.1-.8-.3-.5-.6.6-.6 1.1-.1 1.7.2 1.3.5zM289.2 491.8c-2.7 2.1-2.1 5.2.9 5.2 1.5 0 1.9-.7 1.9-3.5 0-1.9-.1-3.5-.2-3.5-.2 0-1.3.8-2.6 1.8zM191.3 494.7c-2.6.5-3 2.8-.9 4.9 2.7 2.6 4.6 1.7 4.6-2.1 0-1.9-.3-3.4-.7-3.4-.5.1-1.8.4-3 .6z"/></svg>